<svg width="16" height="16" viewBox="0 0 16 16" fill="none" xmlns="http://www.w3.org/2000/svg">
<rect width="16" height="16" fill="#1E1E1E"/>
<rect width="16" height="16" fill="#1A0808"/>
<rect x="7" y="8" width="3" height="1" rx="0.5" fill="#FF0000"/>
<path d="M8.18 12.08C7.48 12.08 6.84667 11.9267 6.28 11.62C5.72 11.3067 5.28 10.88 4.96 10.34C4.64 9.79333 4.48 9.18 4.48 8.5C4.48 7.82 4.64 7.21 4.96 6.67C5.28 6.12333 5.72333 5.69667 6.29 5.39C6.85667 5.07667 7.49 4.92 8.19 4.92C8.73667 4.92 9.23667 5.01333 9.69 5.2C10.1433 5.38 10.53 5.65 10.85 6.01L10.2 6.64C9.67333 6.08667 9.01667 5.81 8.23 5.81C7.71 5.81 7.24 5.92667 6.82 6.16C6.4 6.39333 6.07 6.71667 5.83 7.13C5.59667 7.53667 5.48 7.99333 5.48 8.5C5.48 9.00667 5.59667 9.46667 5.83 9.88C6.07 10.2867 6.4 10.6067 6.82 10.84C7.24 11.0733 7.71 11.19 8.23 11.19C9.01 11.19 9.66667 10.91 10.2 10.35L10.85 10.98C10.53 11.34 10.14 11.6133 9.68 11.8C9.22667 11.9867 8.72667 12.08 8.18 12.08Z" fill="#FF0000"/>
</svg>
