<svg width="48" height="10" viewBox="0 0 48 10" fill="none" xmlns="http://www.w3.org/2000/svg">
<path d="M5.028 9.168C4.148 9.168 3.356 8.984 2.652 8.616C1.956 8.24 1.408 7.72 1.008 7.056C0.608 6.392 0.408 5.64 0.408 4.8C0.408 3.96 0.608 3.208 1.008 2.544C1.408 1.88 1.956 1.364 2.652 0.995999C3.356 0.619999 4.148 0.431999 5.028 0.431999C5.796 0.431999 6.488 0.568 7.104 0.84C7.72 1.112 8.232 1.504 8.64 2.016L7.128 3.384C6.584 2.728 5.924 2.4 5.148 2.4C4.692 2.4 4.284 2.5 3.924 2.7C3.572 2.9 3.296 3.184 3.096 3.552C2.904 3.912 2.808 4.328 2.808 4.8C2.808 5.272 2.904 5.692 3.096 6.06C3.296 6.42 3.572 6.7 3.924 6.9C4.284 7.1 4.692 7.2 5.148 7.2C5.924 7.2 6.584 6.872 7.128 6.216L8.64 7.584C8.232 8.096 7.72 8.488 7.104 8.76C6.488 9.032 5.796 9.168 5.028 9.168ZM13.3714 6.768H12.0754V9H9.69938V0.599999H13.5394C14.2994 0.599999 14.9594 0.727999 15.5194 0.983999C16.0794 1.232 16.5114 1.592 16.8154 2.064C17.1194 2.528 17.2714 3.076 17.2714 3.708C17.2714 4.316 17.1274 4.848 16.8394 5.304C16.5594 5.752 16.1554 6.104 15.6274 6.36L17.4394 9H14.8954L13.3714 6.768ZM14.8714 3.708C14.8714 3.316 14.7474 3.012 14.4994 2.796C14.2514 2.58 13.8834 2.472 13.3954 2.472H12.0754V4.932H13.3954C13.8834 4.932 14.2514 4.828 14.4994 4.62C14.7474 4.404 14.8714 4.1 14.8714 3.708ZM18.5822 0.599999H20.9582V9H18.5822V0.599999ZM26.4886 0.599999C27.2486 0.599999 27.9086 0.727999 28.4686 0.983999C29.0286 1.232 29.4606 1.592 29.7646 2.064C30.0686 2.528 30.2206 3.076 30.2206 3.708C30.2206 4.34 30.0686 4.888 29.7646 5.352C29.4606 5.816 29.0286 6.176 28.4686 6.432C27.9086 6.68 27.2486 6.804 26.4886 6.804H25.0246V9H22.6486V0.599999H26.4886ZM26.3446 4.932C26.8326 4.932 27.2006 4.828 27.4486 4.62C27.6966 4.404 27.8206 4.1 27.8206 3.708C27.8206 3.316 27.6966 3.012 27.4486 2.796C27.2006 2.58 26.8326 2.472 26.3446 2.472H25.0246V4.932H26.3446ZM38.1231 7.164V9H31.3791V0.599999H37.9671V2.436H33.7311V3.852H37.4631V5.628H33.7311V7.164H38.1231ZM43.1136 6.768H41.8176V9H39.4416V0.599999H43.2816C44.0416 0.599999 44.7016 0.727999 45.2616 0.983999C45.8216 1.232 46.2536 1.592 46.5576 2.064C46.8616 2.528 47.0136 3.076 47.0136 3.708C47.0136 4.316 46.8696 4.848 46.5816 5.304C46.3016 5.752 45.8976 6.104 45.3696 6.36L47.1816 9H44.6376L43.1136 6.768ZM44.6136 3.708C44.6136 3.316 44.4896 3.012 44.2416 2.796C43.9936 2.58 43.6256 2.472 43.1376 2.472H41.8176V4.932H43.1376C43.6256 4.932 43.9936 4.828 44.2416 4.62C44.4896 4.404 44.6136 4.1 44.6136 3.708Z" fill="white"/>
</svg>
